<?xml version="1.0" encoding="iso-8859-1"?>
<!-- Generator: Adobe Illustrator 19.0.0, SVG Export Plug-In . SVG Version: 6.00 Build 0)  -->
<svg version="1.1" id="Layer_1" xmlns="http://www.w3.org/2000/svg" xmlns:xlink="http://www.w3.org/1999/xlink" x="0px" y="0px"
	 viewBox="0 0 512 512" style="enable-background:new 0 0 512 512;" xml:space="preserve">
<path style="fill:#FF8546;" d="M256.001,215.884c-43.588,0-79.05-35.462-79.05-79.05c0-12.741,3.097-25.333,8.98-36.586
	c0.344-0.826,0.743-1.637,1.197-2.424l50.37-87.246C241.279,4.032,248.263,0,255.821,0c7.558,0,14.543,4.032,18.32,10.578
	l47.301,81.931c8.903,13.12,13.604,28.424,13.604,44.326C335.048,180.422,299.588,215.884,256.001,215.884z"/>
<path style="fill:#E03905;" d="M321.443,92.503l-47.301-81.931C270.394,4.079,263.489,0.063,256,0v215.878h0.001
	c43.587,0,79.047-35.462,79.047-79.05C335.048,120.928,330.348,105.623,321.443,92.503z"/>
<path style="fill:#F5CDB3;" d="M256,279.386c-11.683,0-21.155-9.472-21.155-21.155V149.059c0-11.683,9.472-21.155,21.155-21.155
	c11.683,0,21.155,9.472,21.155,21.155V258.23C277.155,269.914,267.683,279.386,256,279.386z"/>
<path style="fill:#F0A479;" d="M256,127.904v151.482c11.683,0,21.155-9.472,21.155-21.155V149.059
	C277.155,137.376,267.683,127.904,256,127.904z"/>
<path style="fill:#74D6D0;" d="M397.213,503.479H114.785c-23.721,0-43.018-19.299-43.018-43.02V280.095
	c0-23.721,19.298-43.02,43.018-43.02h282.426c23.721,0,43.02,19.299,43.02,43.02v180.364
	C440.233,484.181,420.934,503.479,397.213,503.479z"/>
<path style="fill:#CCF7F5;" d="M256,503.479H114.785c-23.721,0-43.018-19.299-43.018-43.02V280.095
	c0-23.721,19.298-43.02,43.018-43.02h141.213v266.403H256z"/>
<path style="fill:#E0E0E0;" d="M417.13,512H94.869c-47.833,0-86.747-38.914-86.747-86.747v-33.82
	c0-11.683,9.472-21.155,21.155-21.155s21.155,9.472,21.155,21.155v33.82c0,24.503,19.935,44.437,44.437,44.437H417.13
	c24.503,0,44.438-19.935,44.438-44.437v-33.82c0-11.683,9.472-21.155,21.155-21.155s21.155,9.472,21.155,21.155v33.82
	C503.879,473.086,464.963,512,417.13,512z"/>
<path style="fill:#F4F4F4;" d="M255.999,469.69H94.869c-24.502,0-44.437-19.935-44.437-44.437v-33.82
	c0-11.683-9.472-21.155-21.155-21.155S8.121,379.75,8.121,391.433v33.82C8.121,473.086,47.036,512,94.869,512h161.13L255.999,469.69
	L255.999,469.69z"/>
<g>
</g>
<g>
</g>
<g>
</g>
<g>
</g>
<g>
</g>
<g>
</g>
<g>
</g>
<g>
</g>
<g>
</g>
<g>
</g>
<g>
</g>
<g>
</g>
<g>
</g>
<g>
</g>
<g>
</g>
</svg>
