<?xml version="1.0" encoding="iso-8859-1"?>
<!-- Generator: Adobe Illustrator 19.0.0, SVG Export Plug-In . SVG Version: 6.00 Build 0)  -->
<svg version="1.1" id="Layer_1" xmlns="http://www.w3.org/2000/svg" xmlns:xlink="http://www.w3.org/1999/xlink" x="0px" y="0px"
	 viewBox="0 0 512 512" style="enable-background:new 0 0 512 512;" xml:space="preserve">
<path style="fill:#FF8546;" d="M247.539,512c-47.413,0-86.56-36.434-90.882-82.787c-12.015,5.586-25.134,8.511-38.387,8.511
	c-32.441,0-62.708-17.416-78.992-45.452l-8.913-15.349c-12.249-21.088-15.557-45.688-9.311-69.266
	c5.527-20.865,17.95-38.72,35.348-51.046c-17.473-12.216-30.006-29.993-35.663-50.825c-6.391-23.538-3.238-48.158,8.88-69.323
	l8.818-15.402c16.225-28.34,46.601-45.945,79.275-45.945c13.294,0,26.471,2.947,38.526,8.576C160.124,36.895,199.438,0,247.203,0
	h17.745c47.521,0,86.678,36.518,90.903,82.975c11.969-5.534,25.03-8.432,38.217-8.432c32.518,0,62.821,17.48,79.086,45.617
	l8.883,15.368c23.788,41.151,11.791,93.339-26.288,120.256c17.448,12.253,29.947,30.057,35.561,50.899
	c6.344,23.551,3.14,48.164-9.023,69.304l-8.854,15.388c-16.243,28.236-46.583,45.778-79.173,45.778c-0.004,0-0.004,0-0.008,0
	c-13.12-0.001-26.119-2.87-38.04-8.35c-1.866,21.244-11.017,40.984-26.245,56.282c-17.205,17.282-40.109,26.829-64.489,26.878
	L247.539,512z"/>
<path style="fill:#E03905;" d="M491.15,306.833c-5.612-20.827-18.107-38.62-35.55-50.863c38.067-26.898,50.058-79.048,26.28-120.169
	L473,120.443c-16.259-28.116-46.553-45.582-79.058-45.582c-13.183,0-26.239,2.895-38.205,8.425
	c-4.224-46.423-43.366-82.914-90.872-82.914h-8.945v511.611l9.473-0.02c24.372-0.05,47.268-9.589,64.468-26.859
	c15.223-15.286,24.37-35.011,26.236-56.24c11.918,5.476,24.911,8.342,38.027,8.343c0.004,0,0.004,0,0.008,0
	c32.581,0,62.91-17.53,79.147-45.745l8.851-15.376C494.288,354.962,497.491,330.367,491.15,306.833z"/>
<path style="fill:#CCF7F5;" d="M255.997,338.792c-45.634,0-82.761-37.141-82.761-82.792c0-45.652,37.127-82.792,82.761-82.792
	c45.635,0,82.762,37.14,82.762,82.792S301.632,338.792,255.997,338.792z"/>
<path style="fill:#74D6D0;" d="M255.919,173.454v165.465c45.619-0.001,82.732-37.115,82.732-82.733S301.539,173.456,255.919,173.454
	z"/>
<g>
</g>
<g>
</g>
<g>
</g>
<g>
</g>
<g>
</g>
<g>
</g>
<g>
</g>
<g>
</g>
<g>
</g>
<g>
</g>
<g>
</g>
<g>
</g>
<g>
</g>
<g>
</g>
<g>
</g>
</svg>
